<svg xmlns="http://www.w3.org/2000/svg" fill="none" viewBox="0 0 20 20" width="2rem" height="2rem" class="tiktok-2r6r7f-StyledEditIcon e33dl3i2"><path fill="black" fill-rule="evenodd" d="M15.393 2.226a.842.842 0 00-1.17.02L8.142 8.33a.842.842 0 00-.247.595v2.34c0 .464.377.841.842.841h2.183a.842.842 0 00.596-.246l6.237-6.238a.843.843 0 00-.02-1.211l-2.34-2.184zM9.58 9.273l5.26-5.26 1.107 1.033-5.374 5.375h-.993V9.273zM9.58 2c.232 0 .42.189.42.421v.842a.421.421 0 01-.42.421H4.526a.842.842 0 00-.842.842v10.948c0 .465.377.842.842.842h10.947a.842.842 0 00.842-.842V10.42c0-.232.189-.421.421-.421h.842c.233 0 .422.188.422.421v5.053A2.526 2.526 0 0115.473 18H4.526A2.526 2.526 0 012 15.474V4.526A2.526 2.526 0 014.526 2H9.58z" clip-rule="evenodd"></path></svg>