<svg width="2.4rem" height="2.4rem" viewBox="0 0 24 24" fill="none" xmlns="http://www.w3.org/2000/svg"><path fill-rule="evenodd" clip-rule="evenodd" d="M12 24C18.6274 24 24 18.6274 24 12C24 5.37258 18.6274 0 12 0C5.37258 0 0 5.37258 0 12C0 18.6274 5.37258 24 12 24Z" fill="#161823" fill-opacity="0.75"></path><path fill-rule="evenodd" clip-rule="evenodd" d="M12.313 7.96568C12.3665 7.65966 12.658 7.45498 12.964 7.50851C13.27 7.56203 13.4747 7.8535 13.4211 8.15951L12.0506 15.9952C11.997 16.3012 11.7056 16.5059 11.3996 16.4523C11.0936 16.3988 10.8889 16.1073 10.9424 15.8013L12.313 7.96568ZM16.2402 8.77448C15.96 8.48453 15.5058 8.48453 15.2256 8.77448C14.9454 9.06443 14.9454 9.53454 15.2256 9.82449L17.454 12.1307L15.2262 14.4364C14.946 14.7263 14.946 15.1964 15.2262 15.4864C15.5063 15.7763 15.9606 15.7763 16.2407 15.4864L19.4551 12.1598C19.4704 12.1439 19.4704 12.1182 19.4551 12.1023L19.2233 11.8623L19.2201 11.8586L19.2158 11.854L16.2402 8.77448ZM8.88972 15.4867C8.59977 15.7766 8.12966 15.7766 7.83971 15.4867L5.4207 13.0677L4.76017 12.4071L4.51191 12.1589C4.49603 12.143 4.49603 12.1173 4.51191 12.1014L7.83853 8.77477C8.12848 8.48482 8.59859 8.48482 8.88854 8.77477C9.17849 9.06472 9.17849 9.53482 8.88854 9.82478L6.58318 12.1301L8.88972 14.4367C9.17967 14.7266 9.17967 15.1967 8.88972 15.4867Z" fill="white"></path></svg>