<svg class="css-g0144v" width="2rem" height="2rem" viewBox="0 0 48 48" fill="currentColor" xmlns="http://www.w3.org/2000/svg"><path fill-rule="evenodd" clip-rule="evenodd" d="M11 2C7.68629 2 5 4.68629 5 8V40C5 43.3137 7.68629 46 11 46H37C40.3137 46 43 43.3137 43 40V8C43 4.68629 40.3137 2 37 2H11ZM9 8C9 6.89543 9.89543 6 11 6H37C38.1046 6 39 6.89543 39 8V40C39 41.1046 38.1046 42 37 42H11C9.89543 42 9 41.1046 9 40V8ZM26.063 14.1175C25.7306 13.4415 25.0465 13.0096 24.2933 13.0002C23.54 12.9907 22.8453 13.4054 22.4961 14.0729L15.6945 27.0746L12.4672 33.1814C12.2092 33.6697 12.3958 34.2747 12.8841 34.5328L14.6524 35.4672C15.1407 35.7253 15.7457 35.5386 16.0038 35.0503L18.6718 30.0017H29.4421L32.0324 35.0274C32.2854 35.5183 32.8885 35.7112 33.3794 35.4581L35.1572 34.5419C35.6481 34.2888 35.8409 33.6858 35.5879 33.1948L32.4477 27.1022L26.063 14.1175ZM27.4492 26.0017H20.77L24.213 19.4202L27.4492 26.0017Z"></path></svg>