<svg class="css-g0144v" width="2rem" height="2rem" viewBox="0 0 20 20" fill="currentColor" xmlns="http://www.w3.org/2000/svg"><path fill-rule="evenodd" clip-rule="evenodd" d="M10.0002 2.49992C5.85803 2.49992 2.50016 5.85778 2.50016 9.99992C2.50016 14.1421 5.85803 17.4999 10.0002 17.4999C14.1423 17.4999 17.5002 14.1421 17.5002 9.99992C17.5002 5.85778 14.1423 2.49992 10.0002 2.49992ZM0.833496 9.99992C0.833496 4.93731 4.93755 0.833252 10.0002 0.833252C15.0628 0.833252 19.1668 4.93731 19.1668 9.99992C19.1668 15.0625 15.0628 19.1666 10.0002 19.1666C4.93755 19.1666 0.833496 15.0625 0.833496 9.99992Z"></path><path fill-rule="evenodd" clip-rule="evenodd" d="M12.141 4.99992C12.141 6.27424 13.2115 7.3484 14.5835 7.3484V9.01507C13.6736 9.01507 12.8267 8.72389 12.141 8.22854V11.4961C12.141 13.2238 10.7059 14.5833 8.98723 14.5833C7.26852 14.5833 5.8335 13.2238 5.8335 11.4961C5.8335 9.76845 7.26852 8.40901 8.98723 8.40901V10.0757C8.1429 10.0757 7.50016 10.7343 7.50016 11.4961C7.50016 12.2579 8.1429 12.9166 8.98723 12.9166C9.83156 12.9166 10.4743 12.2579 10.4743 11.4961V4.99992H12.141Z"></path></svg>