<svg class="css-g0144v" width="2rem" height="2rem" viewBox="0 0 48 48" fill="currentColor" xmlns="http://www.w3.org/2000/svg"><path fill-rule="evenodd" clip-rule="evenodd" d="M6 24C6 14.0589 14.0589 6 24 6C33.9411 6 42 14.0589 42 24C42 33.9411 33.9411 42 24 42C14.0589 42 6 33.9411 6 24ZM24 2C11.8497 2 2 11.8497 2 24C2 36.1503 11.8497 46 24 46C36.1503 46 46 36.1503 46 24C46 11.8497 36.1503 2 24 2ZM15 14C14.4477 14 14 14.4477 14 15V17C14 17.5523 14.4477 18 15 18H17C17.5523 18 18 17.5523 18 17V15C18 14.4477 17.5523 14 17 14H15ZM14 31C14 30.4477 14.4477 30 15 30H33C33.5523 30 34 30.4477 34 31V33C34 33.5523 33.5523 34 33 34H15C14.4477 34 14 33.5523 14 33V31ZM15 22C14.4477 22 14 22.4477 14 23V25C14 25.5523 14.4477 26 15 26H17C17.5523 26 18 25.5523 18 25V23C18 22.4477 17.5523 22 17 22H15ZM22 15C22 14.4477 22.4477 14 23 14H25C25.5523 14 26 14.4477 26 15V17C26 17.5523 25.5523 18 25 18H23C22.4477 18 22 17.5523 22 17V15ZM23 22C22.4477 22 22 22.4477 22 23V25C22 25.5523 22.4477 26 23 26H25C25.5523 26 26 25.5523 26 25V23C26 22.4477 25.5523 22 25 22H23ZM30 15C30 14.4477 30.4477 14 31 14H33C33.5523 14 34 14.4477 34 15V17C34 17.5523 33.5523 18 33 18H31C30.4477 18 30 17.5523 30 17V15ZM31 22C30.4477 22 30 22.4477 30 23V25C30 25.5523 30.4477 26 31 26H33C33.5523 26 34 25.5523 34 25V23C34 22.4477 33.5523 22 33 22H31Z"></path></svg>