<svg
    width="3.2rem"
    height="3.2rem"
    viewBox="0 0 48 48"
    fill="currentColor"
    xmlns="http://www.w3.org/2000/svg"
  >
    <path d="M6.5 17.5714C6.5 14.7292 8.86029 12.5 11.6782 12.5H27.8621C30.6799 12.5 33.0402 14.7292 33.0402 17.5714V18.6843L36.745 15.9435C37.6399 15.2815 38.8324 15.1731 39.8318 15.6537C40.8365 16.1369 41.5 17.1486 41.5 18.2857V29.7143C41.5 30.8514 40.8365 31.8631 39.8318 32.3463C38.8324 32.8269 37.6399 32.7185 36.745 32.0565L33.0402 29.3158V30.4286C33.0402 33.2708 30.6799 35.5 27.8621 35.5H11.6782C8.86029 35.5 6.5 33.2708 6.5 30.4286V17.5714Z"></path>
    <path
      d="M23.25 23.134C23.9167 23.5189 23.9167 24.4811 23.25 24.866L17.25 28.3301C16.5833 28.715 15.75 28.2339 15.75 27.4641L15.75 20.5359C15.75 19.7661 16.5833 19.285 17.25 19.6699L23.25 23.134Z"
      fill="white"
    ></path>
  </svg>