<svg class="css-g0144v" width="1em" height="1em" viewBox="0 0 48 48" fill="currentColor" xmlns="http://www.w3.org/2000/svg"><path fill-rule="evenodd" clip-rule="evenodd" d="M24.1716 26L7 26C6.44771 26 6 25.5523 6 25L6 23C6 22.4477 6.44771 22 7 22L24.1716 22L20.2929 18.1213C19.9024 17.7308 19.9024 17.0976 20.2929 16.7071L21.7071 15.2929C22.0976 14.9024 22.7308 14.9024 23.1213 15.2929L30.4142 22.5858C31.1953 23.3668 31.1953 24.6332 30.4142 25.4142L23.1213 32.7071C22.7308 33.0976 22.0976 33.0976 21.7071 32.7071L20.2929 31.2929C19.9024 30.9024 19.9024 30.2692 20.2929 29.8787L24.1716 26ZM36 43L27 43C26.4477 43 26 42.5523 26 42L26 40C26 39.4477 26.4477 39 27 39L36 39C37.1046 39 38 38.1046 38 37L38 11C38 9.89543 37.1046 9 36 9L27 9C26.4477 9 26 8.55228 26 8L26 6C26 5.44771 26.4477 5 27 5L36 5C39.3137 5 42 7.68629 42 11L42 37C42 40.3137 39.3137 43 36 43Z"></path></svg>