<svg width="2.2rem" height="2.2rem" viewBox="0 0 48 48" fill="currentColor" xmlns="http://www.w3.org/2000/svg"><path fill-rule="evenodd" clip-rule="evenodd" d="M24 6C14.0589 6 6 14.0589 6 24C6 33.9411 14.0589 42 24 42C28.0553 42 31.7921 40.6614 34.8006 38.401L35.6001 37.8003C36.0416 37.4686 36.6685 37.5576 37.0003 37.9992L38.2016 39.5981C38.5334 40.0397 38.4443 40.6666 38.0028 40.9983L37.2033 41.599C33.5258 44.3619 28.9513 46 24 46C11.8497 46 2 36.1503 2 24C2 11.8497 11.8497 2 24 2C36.1503 2 46 11.8497 46 24V26C46 30.4843 42.1949 34 37.8438 34C35.1966 34 32.8496 32.7142 31.3935 30.733C29.5649 32.7403 26.9303 34 24 34C18.4772 34 14 29.5228 14 24C14 18.4772 18.4772 14 24 14C29.5228 14 34 18.4772 34 24C34 24.5814 33.9502 25.1528 33.8541 25.7096C33.8473 25.8052 33.8438 25.902 33.8438 26C33.8438 28.2091 35.6347 30 37.8438 30C40.1201 30 42 28.1431 42 26V24C42 14.0589 33.9411 6 24 6ZM24 18C20.6863 18 18 20.6863 18 24C18 27.3137 20.6863 30 24 30C26.9395 30 29.3891 27.8841 29.9013 25.0918C29.9659 24.7392 30 24.3744 30 24C30 20.6863 27.3137 18 24 18Z"></path></svg>