<svg width="17" height="17" viewBox="0 0 17 17" fill="none" xmlns="http://www.w3.org/2000/svg">
<path fill-rule="evenodd" clip-rule="evenodd" d="M12.6195 4.54371C12.6195 4.32979 12.4208 4.17124 12.2123 4.21868L6.88287 5.43055C6.73112 5.46506 6.62344 5.59997 6.62344 5.75559V13.6232H6.62311C6.63194 14.3456 5.88686 15.0971 4.82345 15.382C3.63644 15.7001 2.50229 15.3164 2.29025 14.5251C2.07821 13.7338 2.86858 12.8344 4.05559 12.5163C4.48814 12.4004 4.91366 12.3777 5.29011 12.434V5.75559C5.29011 4.9775 5.8285 4.30294 6.58722 4.13041L11.9166 2.91853C12.9596 2.68136 13.9528 3.4741 13.9528 4.54371V11.9972C13.9808 12.7277 13.2305 13.4944 12.1539 13.7829C10.9668 14.101 9.83269 13.7173 9.62066 12.926C9.40862 12.1346 10.199 11.2353 11.386 10.9172C11.8182 10.8014 12.2433 10.7786 12.6195 10.8347V4.54371Z" fill="white"/>
</svg>
