<svg width="2.3rem" height="2.3rem" viewBox="0 0 48 48" fill="currentColor" xmlns="http://www.w3.org/2000/svg"><path fill-rule="evenodd" clip-rule="evenodd" d="M8 6C6.89543 6 6 6.89543 6 8V21C6 22.1046 6.89543 23 8 23H21C22.1046 23 23 22.1046 23 21V8C23 6.89543 22.1046 6 21 6H8ZM10 19V10H19V19H10ZM28 6C26.8954 6 26 6.89543 26 8V21C26 22.1046 26.8954 23 28 23H41C42.1046 23 43 22.1046 43 21V8C43 6.89543 42.1046 6 41 6H28ZM30 19V10H39V19H30ZM8 26C6.89543 26 6 26.8954 6 28V41C6 42.1046 6.89543 43 8 43H21C22.1046 43 23 42.1046 23 41V28C23 26.8954 22.1046 26 21 26H8ZM10 39V30H19V39H10ZM26 42C26 42.5523 26.4477 43 27 43H29C29.5523 43 30 42.5523 30 42V27C30 26.4477 29.5523 26 29 26H27C26.4477 26 26 26.4477 26 27V42ZM32.5 42C32.5 42.5523 32.9477 43 33.5 43H35.5C36.0523 43 36.5 42.5523 36.5 42V27C36.5 26.4477 36.0523 26 35.5 26H33.5C32.9477 26 32.5 26.4477 32.5 27V42ZM40 43C39.4477 43 39 42.5523 39 42V27C39 26.4477 39.4477 26 40 26H42C42.5523 26 43 26.4477 43 27V42C43 42.5523 42.5523 43 42 43H40Z"></path></svg>