<svg class="css-g0144v" width="2rem" height="2rem" viewBox="0 0 48 48" fill="currentColor" xmlns="http://www.w3.org/2000/svg"><path fill-rule="evenodd" clip-rule="evenodd" d="M21.375 44.2391C21.375 44.6593 21.7157 45 22.1359 45H25.8641C26.2843 45 26.625 44.6593 26.625 44.2391V41.3044C29.4979 40.8723 32.1421 39.7417 34.3792 38.0912L36.4554 40.1674C36.7525 40.4646 37.2343 40.4646 37.5314 40.1674L40.1677 37.5311C40.4648 37.234 40.4648 36.7522 40.1677 36.4551L38.0915 34.3789C39.7419 32.1418 40.8723 29.4978 41.3044 26.625H44.2391C44.6593 26.625 45 26.2843 45 25.8641V22.1359C45 21.7157 44.6593 21.375 44.2391 21.375H41.3044C40.8723 18.5021 39.7418 15.858 38.0913 13.6209L40.1673 11.5449C40.4644 11.2478 40.4644 10.766 40.1673 10.4689L37.531 7.83262C37.2339 7.53548 36.7521 7.53548 36.455 7.83262L34.379 9.90863C32.1419 8.25818 29.4978 7.1277 26.625 6.69556V3.76087C26.625 3.34065 26.2843 3 25.8641 3H22.1359C21.7156 3 21.375 3.34065 21.375 3.76087V6.69556C18.5022 7.1277 15.8582 8.25815 13.6211 9.90854L11.5452 7.83265C11.2481 7.53551 10.7664 7.53551 10.4692 7.83265L7.83294 10.4689C7.5358 10.7661 7.5358 11.2478 7.83294 11.545L9.90878 13.6208C8.25826 15.8579 7.12772 18.5021 6.69556 21.375H3.76087C3.34065 21.375 3 21.7157 3 22.1359V25.8641C3 26.2843 3.34065 26.625 3.76087 26.625H6.69556C7.1277 29.4978 8.25819 32.1419 9.90863 34.379L7.83255 36.4551C7.53541 36.7522 7.53541 37.234 7.83255 37.5311L10.4688 40.1674C10.766 40.4645 11.2477 40.4645 11.5449 40.1674L13.6209 38.0913C15.858 39.7418 18.5021 40.8723 21.375 41.3044V44.2391ZM24 38C31.732 38 38 31.732 38 24C38 16.268 31.732 10 24 10C16.268 10 10 16.268 10 24C10 31.732 16.268 38 24 38Z"></path></svg>