<svg
    width="3.2rem"
    height="3.2rem"
    viewBox="0 0 48 48"
    fill="currentColor"
    xmlns="http://www.w3.org/2000/svg"
  >
    <path d="M25.5 17C25.5 21.1421 22.1421 24.5 18 24.5C13.8579 24.5 10.5 21.1421 10.5 17C10.5 12.8579 13.8579 9.5 18 9.5C22.1421 9.5 25.5 12.8579 25.5 17Z"></path>
    <path d="M7.10396 34.7906C8.78769 30.2189 12.8204 27 18.0009 27C23.1818 27 27.2107 30.2213 28.8958 34.7898C29.3075 35.906 28.6141 37 27.5 37H8.5C7.38629 37 6.69289 35.9067 7.10396 34.7906Z"></path>
    <path d="M40.6308 37H32C31.2264 34.1633 30.0098 31.5927 28.144 29.7682C29.5384 28.9406 31.1829 28.5 33 28.5C37.239 28.5 40.536 30.8992 41.9148 35.0108C42.2516 36.0154 41.5423 37 40.6308 37Z"></path>
    <path d="M33 26.5C36.0376 26.5 38.5 24.0376 38.5 21C38.5 17.9624 36.0376 15.5 33 15.5C29.9624 15.5 27.5 17.9624 27.5 21C27.5 24.0376 29.9624 26.5 33 26.5Z"></path>
  </svg>