<svg width="2rem" height="2rem" viewBox="0 0 48 48" fill="none" xmlns="http://www.w3.org/2000/svg"><path fill-rule="evenodd" clip-rule="evenodd" d="M32.5395 4C32.818 6.36773 31.8105 8.69873 30.3367 10.4125C28.7997 12.0988 26.3381 13.3901 23.9417 13.223C23.6296 10.9471 24.8426 8.52606 26.2018 7.04921C27.7388 5.37215 30.4058 4.08817 32.5395 4ZM40.3837 17.6472C40.1083 17.8003 35.6843 20.2608 35.7333 25.2724C35.7886 31.3304 41.4309 33.3307 41.5 33.3528C41.4664 33.4924 40.6169 36.2422 38.5011 39.0324C36.7329 41.4901 34.8798 43.8928 31.9402 43.9368C30.5423 43.9665 29.5985 43.5924 28.6151 43.2026C27.5889 42.7957 26.5195 42.3718 24.8459 42.3718C23.0723 42.3718 21.9556 42.8092 20.8786 43.2311C19.9474 43.5958 19.0459 43.9489 17.7752 43.9975C14.9739 44.0948 12.8343 41.3744 11.003 38.9387C7.34418 33.9681 4.49342 24.9289 8.31419 18.779C10.1653 15.7628 13.5436 13.8194 17.151 13.768C18.7401 13.7368 20.2645 14.3064 21.6007 14.8057C22.6216 15.1873 23.5327 15.5277 24.2789 15.5277C24.9355 15.5277 25.822 15.2004 26.8551 14.819C28.4827 14.218 30.4741 13.4828 32.5032 13.6817C33.8901 13.7184 37.8412 14.1905 40.3897 17.6438L40.3837 17.6472Z" fill="#161823"></path></svg>