<svg width="2rem" height="2rem" viewBox="0 0 48 48" fill="none" xmlns="http://www.w3.org/2000/svg"><path fill-rule="evenodd" clip-rule="evenodd" d="M24 46C36.1503 46 46 36.1503 46 24C46 11.8497 36.1503 2 24 2C11.8497 2 2 11.8497 2 24C2 36.1503 11.8497 46 24 46Z" fill="url(#InstagramCircleColor_paint0_radial)"></path><path fill-rule="evenodd" clip-rule="evenodd" d="M24 46C36.1503 46 46 36.1503 46 24C46 11.8497 36.1503 2 24 2C11.8497 2 2 11.8497 2 24C2 36.1503 11.8497 46 24 46Z" fill="url(#InstagramCircleColor_paint1_radial)"></path><path d="M12.2689 29.0393L12.2683 29.0257L12.2674 29.0121C12.2581 28.8681 12.2467 28.7257 12.2361 28.5942L12.2357 28.5899C12.2259 28.4679 12.2168 28.3551 12.2093 28.2443V19.8627C12.21 19.8592 12.2108 19.8558 12.2115 19.8523C12.2258 19.7843 12.2503 19.6567 12.2525 19.5033C12.2783 18.5107 12.3298 17.6235 12.5372 16.7855C13.0067 14.9166 14.0499 13.622 15.7951 12.8635C16.7343 12.4582 17.7702 12.3191 18.9552 12.2691C19.2441 12.2596 19.5271 12.2332 19.7741 12.2093H28.1373C28.1408 12.21 28.1442 12.2108 28.1477 12.2115C28.2157 12.2258 28.3433 12.2503 28.4967 12.2525C29.4893 12.2783 30.3765 12.3298 31.2145 12.5372C33.0835 13.0068 34.3781 14.05 35.1366 15.7954C35.5419 16.7345 35.6809 17.7702 35.7309 18.9552C35.7404 19.244 35.7668 19.5271 35.7907 19.7741V28.1373C35.79 28.1408 35.7892 28.1442 35.7885 28.1477C35.7742 28.2157 35.7497 28.3433 35.7475 28.4967C35.7217 29.4894 35.6701 30.3768 35.4627 31.2149C34.9931 33.0836 33.9499 34.3781 32.2048 35.1366C31.2656 35.5418 30.2298 35.6809 29.0448 35.7309C28.756 35.7404 28.4729 35.7668 28.2259 35.7907H19.8627C19.8592 35.79 19.8558 35.7892 19.8523 35.7885C19.7843 35.7742 19.6567 35.7497 19.5033 35.7475C18.5106 35.7217 17.6232 35.6701 16.7851 35.4627C14.9165 34.9931 13.622 33.95 12.8635 32.205C12.4575 31.2643 12.3187 30.2267 12.2689 29.0393Z" stroke="white" stroke-width="2.4186"></path><path fill-rule="evenodd" clip-rule="evenodd" d="M24 28.207C26.3015 28.207 28.2068 26.327 28.2068 24.0508C28.2068 21.7071 26.3437 19.8017 24.0421 19.7933C21.69 19.7933 19.7931 21.6649 19.7931 23.9917C19.7931 26.3186 21.6731 28.207 24 28.207ZM30.5 24.0084C30.5 27.6083 27.583 30.5084 23.9831 30.5C20.4001 30.4916 17.5 27.583 17.5 23.9916C17.5 20.3917 20.417 17.4916 24.0169 17.5C27.5999 17.5084 30.5 20.417 30.5 24.0084Z" fill="white"></path><path fill-rule="evenodd" clip-rule="evenodd" d="M30.4921 15.3327C31.2981 15.3327 31.9446 15.9712 31.9446 16.7692C31.9446 17.5672 31.2981 18.2216 30.5001 18.2216C29.7101 18.2216 29.0557 17.5672 29.0557 16.7692C29.0636 15.9791 29.7101 15.3327 30.4921 15.3327Z" fill="white"></path><defs><radialGradient id="InstagramCircleColor_paint0_radial" cx="0" cy="0" r="1" gradientUnits="userSpaceOnUse" gradientTransform="translate(13.6876 49.3889) rotate(-90) scale(43.6073 40.5582)"><stop stop-color="#FFDD55"></stop><stop offset="0.1" stop-color="#FFDD55"></stop><stop offset="0.5" stop-color="#FF543E"></stop><stop offset="1" stop-color="#C837AB"></stop></radialGradient><radialGradient id="InstagramCircleColor_paint1_radial" cx="0" cy="0" r="1" gradientUnits="userSpaceOnUse" gradientTransform="translate(-5.37023 5.16969) rotate(78.6806) scale(19.4926 80.3494)"><stop stop-color="#3771C8"></stop><stop offset="0.128" stop-color="#3771C8"></stop><stop offset="1" stop-color="#6600FF" stop-opacity="0"></stop></radialGradient></defs></svg>