<svg width="2rem" height="2rem" viewBox="0 0 48 48" fill="none" xmlns="http://www.w3.org/2000/svg"><path fill-rule="evenodd" clip-rule="evenodd" d="M24 47.001C36.7026 47.001 47 36.7035 47 24.001C47 11.2984 36.7026 1.00098 24 1.00098C11.2975 1.00098 1 11.2984 1 24.001C1 36.7035 11.2975 47.001 24 47.001Z" fill="#FBE300"></path><path d="M24.0825 10C15.6421 10 8.7998 15.3949 8.7998 22.0498C8.7998 26.3524 11.6603 30.1276 15.9633 32.2594C15.7292 33.0668 14.459 37.4532 14.4084 37.7978C14.4084 37.7978 14.378 38.0567 14.5457 38.1555C14.7133 38.2542 14.9105 38.1775 14.9105 38.1775C15.3914 38.1104 20.4862 34.5316 21.3681 33.9101C22.249 34.0349 23.1562 34.0997 24.0825 34.0997C32.523 34.0997 39.3652 28.7049 39.3652 22.0498C39.3652 15.3949 32.523 10 24.0825 10Z" fill="black"></path><path d="M15.6327 26.2563C15.1464 26.2563 14.751 25.8786 14.751 25.4143V20.1763H13.3752C12.8981 20.1763 12.51 19.7889 12.51 19.3129C12.51 18.837 12.8982 18.4496 13.3752 18.4496H17.8901C18.3673 18.4496 18.7554 18.837 18.7554 19.3129C18.7554 19.7889 18.3671 20.1763 17.8901 20.1763H16.5144V25.4143C16.5144 25.8786 16.1189 26.2563 15.6327 26.2563ZM23.364 26.2448C22.9963 26.2448 22.715 26.0955 22.6303 25.8554L22.1937 24.7124L19.5051 24.7123L19.0682 25.856C18.9837 26.0957 18.7026 26.2448 18.3349 26.2448C18.1415 26.245 17.9504 26.2035 17.7745 26.1232C17.5314 26.011 17.2978 25.7027 17.5655 24.8711L19.6745 19.32C19.8231 18.8978 20.2744 18.4628 20.8486 18.4498C21.4245 18.4627 21.8758 18.8978 22.0247 19.3209L24.1328 24.8695C24.4011 25.703 24.1675 26.0115 23.9244 26.1233C23.7485 26.2035 23.5573 26.245 23.364 26.2448C23.364 26.2448 23.3638 26.2448 23.364 26.2448ZM21.73 23.1507L20.8494 20.6489L19.9687 23.1507H21.73ZM25.5518 26.1277C25.0858 26.1277 24.7068 25.765 24.7068 25.3195V19.3313C24.7068 18.8451 25.1106 18.4496 25.6069 18.4496C26.1031 18.4496 26.5069 18.8451 26.5069 19.3313V24.5113H28.3805C28.8465 24.5113 29.2255 24.8739 29.2255 25.3195C29.2255 25.765 28.8465 26.1277 28.3805 26.1277H25.5518ZM30.4502 26.2448C29.9639 26.2448 29.5685 25.8494 29.5685 25.3631V19.3313C29.5685 18.8451 29.9639 18.4496 30.4502 18.4496C30.9364 18.4496 31.3319 18.8451 31.3319 19.3313V21.2264L33.7918 18.7664C33.9183 18.6399 34.0921 18.5703 34.2808 18.5703C34.501 18.5703 34.722 18.6652 34.8876 18.8307C35.042 18.985 35.1342 19.1835 35.1468 19.3896C35.1596 19.5976 35.0904 19.7882 34.9522 19.9265L32.943 21.9354L35.1133 24.8106C35.1834 24.9028 35.2344 25.0081 35.2635 25.1202C35.2925 25.2323 35.299 25.3491 35.2826 25.4638C35.2669 25.5785 35.2285 25.689 35.1698 25.7888C35.1111 25.8886 35.0331 25.9758 34.9405 26.0453C34.788 26.1612 34.6017 26.2237 34.4101 26.2232C34.2735 26.2239 34.1387 26.1925 34.0164 26.1316C33.894 26.0708 33.7877 25.9821 33.7058 25.8728L31.6381 23.133L31.3321 23.439V25.3627C31.3319 25.5965 31.2389 25.8207 31.0735 25.9861C30.9082 26.1515 30.684 26.2445 30.4502 26.2448Z" fill="#FFE812"></path></svg>