<svg width="2rem" height="2rem" viewBox="0 0 48 48" fill="none" xmlns="http://www.w3.org/2000/svg"><path fill-rule="evenodd" clip-rule="evenodd" d="M43.8044 6.79902C42.5841 7.62363 39.7822 8.82191 38.4004 8.82191V8.82437C36.8226 7.08554 34.6013 6 32.1377 6C27.353 6 23.4731 10.093 23.4731 15.1387C23.4731 15.8398 23.5501 16.5236 23.6925 17.1793H23.6911C17.2007 16.9996 10.1022 13.5678 5.82893 7.69403C3.2016 12.4916 5.4752 17.8272 8.45673 19.7713C7.43613 19.8526 5.55733 19.6473 4.673 18.737C4.61373 21.9212 6.06507 26.1403 11.3571 27.6709C10.3379 28.2494 8.53373 28.0834 7.74926 27.9604C8.0246 30.6484 11.5927 34.1625 15.4945 34.1625C14.1039 35.8594 8.8716 38.9374 3 37.9582C6.98767 40.5177 11.6352 42 16.5543 42C30.5333 42 41.3894 30.0482 40.8051 15.3041C40.8028 15.2879 40.8028 15.2716 40.8014 15.2539C40.8028 15.216 40.8051 15.1781 40.8051 15.1387C40.8051 15.0929 40.8014 15.0496 40.8 15.0053C42.0726 14.0871 43.7801 12.463 45 10.3254C44.2925 10.7365 42.1701 11.5596 40.1952 11.7639C41.4627 11.0422 43.3405 8.67865 43.8044 6.79902Z" fill="#1DA1F2"></path></svg>