<svg width="4rem" height="4rem" viewBox="0 0 48 48" fill="none" xmlns="http://www.w3.org/2000/svg"><g opacity="0.9" filter="url(#ShareShadowColor_filter0_d)"><path fill-rule="evenodd" clip-rule="evenodd" d="M25.8 10.3085C25.8 9.04248 27.3162 8.39262 28.233 9.26572L42.1847 22.5524C43.4124 23.7216 43.3695 25.6932 42.092 26.8079L28.1867 38.9414C27.2552 39.7542 25.8 39.0926 25.8 37.8564V32.3581C25.8 32.3581 10.8695 29.6685 6.08025 38.4593C5.63374 39.2789 3.89328 39.5657 4.24706 35.4764C5.72648 27.9499 8.75001 16.1999 25.8 16.1999V10.3085Z" fill="white"></path></g><path opacity="0.03" fill-rule="evenodd" clip-rule="evenodd" d="M36.0958 16.8L38.8639 22.3362C39.3536 23.3155 39.1184 24.5021 38.2921 25.2206L25.8958 36C25.8958 36 25.2958 39 27.0958 39C28.8958 39 43.2958 25.8 43.2958 25.8C43.2958 25.8 43.8958 24 42.0958 22.2C40.2958 20.4 36.0958 16.8 36.0958 16.8Z" fill="#161823"></path><path opacity="0.09" fill-rule="evenodd" clip-rule="evenodd" d="M25.7997 16.8389V32.4389C25.7997 32.4389 11.5114 30.4255 7.03635 37.2389C2.73042 43.7949 3.12588 29.8349 9.60816 22.8829C16.0904 15.931 25.7997 16.8389 25.7997 16.8389Z" fill="url(#ShareShadowColor_paint0_radial)"></path><defs><filter id="ShareShadowColor_filter0_d" x="1.79995" y="7.66563" width="43.6786" height="35.2335" filterUnits="userSpaceOnUse" color-interpolation-filters="sRGB"><feFlood flood-opacity="0" result="BackgroundImageFix"></feFlood><feColorMatrix in="SourceAlpha" type="matrix" values="0 0 0 0 0 0 0 0 0 0 0 0 0 0 0 0 0 0 127 0"></feColorMatrix><feOffset dy="1.2"></feOffset><feGaussianBlur stdDeviation="1.2"></feGaussianBlur><feColorMatrix type="matrix" values="0 0 0 0 0 0 0 0 0 0 0 0 0 0 0 0 0 0 0.15 0"></feColorMatrix><feBlend mode="normal" in2="BackgroundImageFix" result="effect1_dropShadow"></feBlend><feBlend mode="normal" in="SourceGraphic" in2="effect1_dropShadow" result="shape"></feBlend></filter><radialGradient id="ShareShadowColor_paint0_radial" cx="0" cy="0" r="1" gradientUnits="userSpaceOnUse" gradientTransform="translate(26.324 42.5462) rotate(-113.046) scale(19.0955 18.771)"><stop></stop><stop offset="0.995496" stop-opacity="0.01"></stop><stop offset="1" stop-opacity="0.01"></stop></radialGradient></defs></svg>